<svg
        xmlns="http://www.w3.org/2000/svg"
        width="48"
        height="48"
        viewBox="0 0 48 48"
        fill="none"
>
    <path
            d="M31.75 32.55L32.55 31.75L24.6 23.7488V13.8H23.5V24.25L31.75 32.55ZM24.0087 41.4C21.6029 41.4 19.349 40.9435 17.2471 40.0305C15.1451 39.1174 13.3022 37.8699 11.7183 36.2881C10.1345 34.7062 8.88548 32.8656 7.97128 30.7663C7.05708 28.667 6.59998 26.4145 6.59998 24.0087C6.59998 21.6029 7.05649 19.349 7.96953 17.2471C8.88259 15.1451 10.1301 13.3022 11.7119 11.7184C13.2938 10.1345 15.1344 8.88551 17.2337 7.97131C19.3329 7.05711 21.5855 6.60001 23.9913 6.60001C26.3971 6.60001 28.6509 7.05652 30.7529 7.96956C32.8548 8.88262 34.6977 10.1301 36.2816 11.712C37.8654 13.2939 39.1145 15.1344 40.0287 17.2337C40.9429 19.333 41.4 21.5855 41.4 23.9913C41.4 26.3971 40.9435 28.651 40.0304 30.7529C39.1174 32.8549 37.8699 34.6978 36.288 36.2817C34.7061 37.8655 32.8655 39.1145 30.7663 40.0287C28.667 40.9429 26.4145 41.4 24.0087 41.4ZM24 40.3C28.5 40.3 32.3416 38.7083 35.525 35.525C38.7083 32.3417 40.3 28.5 40.3 24C40.3 19.5 38.7083 15.6583 35.525 12.475C32.3416 9.29167 28.5 7.70001 24 7.70001C19.5 7.70001 15.6583 9.29167 12.475 12.475C9.29164 15.6583 7.69998 19.5 7.69998 24C7.69998 28.5 9.29164 32.3417 12.475 35.525C15.6583 38.7083 19.5 40.3 24 40.3Z"
            fill="#F53535"
    />
</svg>