<svg
        xmlns="http://www.w3.org/2000/svg"
        width="48"
        height="48"
        viewBox="0 0 48 48"
        fill="none"
>
    <path
            d="M6.59998 39V9.30001C6.59998 8.54084 6.86019 7.90104 7.38063 7.38061C7.90103 6.86021 8.54081 6.60001 9.29998 6.60001H38.7C39.4591 6.60001 40.0989 6.86021 40.6194 7.38061C41.1398 7.90104 41.4 8.54084 41.4 9.30001V30.7C41.4 31.4592 41.1398 32.099 40.6194 32.6194C40.0989 33.1398 39.4591 33.4 38.7 33.4H12.2L6.59998 39ZM11.7 32.3H38.7C39.1 32.3 39.4666 32.1333 39.8 31.8C40.1333 31.4667 40.3 31.1 40.3 30.7V9.30001C40.3 8.90001 40.1333 8.53334 39.8 8.20001C39.4666 7.86667 39.1 7.70001 38.7 7.70001H9.29998C8.89998 7.70001 8.53331 7.86667 8.19998 8.20001C7.86664 8.53334 7.69998 8.90001 7.69998 9.30001V36.4L11.7 32.3Z"
            fill="#F53535"
    />
</svg>