<svg width="544" height="393" viewBox="0 0 544 393" fill="none" xmlns="http://www.w3.org/2000/svg">
<g opacity="0.18">
<path d="M761.454 334.067C759.626 334.067 758.086 335.172 757.634 336.639L545.718 336.639L500.858 376.205L354.61 376.205C354.138 374.72 352.618 373.633 350.79 373.633C348.592 373.633 346.805 375.209 346.805 377.148C346.805 379.086 348.592 380.662 350.79 380.662C352.618 380.662 354.158 379.557 354.61 378.09L501.741 378.09L546.602 338.523L757.634 338.523C758.106 340.009 759.626 341.096 761.454 341.096C763.652 341.096 765.439 339.52 765.439 337.581C765.439 335.625 763.652 334.067 761.454 334.067Z" fill="url(#paint0_linear_31_554)"/>
<path d="M515.031 309.211L659.615 309.211C660.087 310.697 661.607 311.784 663.435 311.784C665.633 311.784 667.42 310.207 667.42 308.269C667.42 306.331 665.633 304.754 663.435 304.754C661.607 304.754 660.067 305.859 659.615 307.327L514.148 307.327L463.474 352.02L305.703 352.02L273.722 323.813L107.077 323.813C106.605 322.327 105.085 321.24 103.257 321.24C101.059 321.24 99.272 322.816 99.272 324.755C99.272 326.693 101.059 328.269 103.257 328.269C105.085 328.269 106.625 327.182 107.077 325.697L272.839 325.697L304.82 353.904L464.358 353.904L515.031 309.211Z" fill="url(#paint1_linear_31_554)"/>
<path d="M432.191 13.533C429.993 13.533 428.206 15.1092 428.206 17.0476C428.206 18.9861 429.993 20.5622 432.191 20.5622C434.019 20.5622 435.56 19.4571 436.012 17.9897L646.633 17.9897L691.905 57.9183L791.628 57.9183L827.348 26.4138L885.56 26.4138C886.032 27.8994 887.552 28.9864 889.38 28.9864C891.578 28.9864 893.365 27.4102 893.365 25.4718C893.365 23.5333 891.578 21.9572 889.38 21.9572C887.552 21.9572 886.012 23.0623 885.56 24.5297L826.485 24.5297L790.766 56.0342L692.788 56.0342L647.517 16.1056L436.012 16.1056C435.539 14.6381 434.019 13.533 432.191 13.533Z" fill="url(#paint2_linear_31_554)"/>
<path d="M134.827 57.574C136.656 57.574 138.196 56.487 138.648 55.0014L309.873 55.0014L367.201 4.45666L466.925 4.45667C467.398 5.94221 468.918 7.02919 470.746 7.02919C472.943 7.02919 474.731 5.45306 474.731 3.51461C474.731 1.57615 472.943 1.8953e-05 470.746 1.88048e-05C468.918 1.86816e-05 467.377 1.10512 466.925 2.57255L366.318 2.57254L308.99 53.1173L138.648 53.1173C138.176 51.6318 136.656 50.5448 134.827 50.5448C132.63 50.5448 130.843 52.1209 130.843 54.0594C130.843 55.9978 132.609 57.574 134.827 57.574Z" fill="url(#paint3_linear_31_554)"/>
<path d="M691.124 78.7521L657.89 49.4398L403.722 49.4398L370.878 20.4897L320.595 64.8387L141.955 64.8387C141.483 63.3532 139.963 62.2661 138.135 62.2661C135.937 62.2661 134.15 63.8423 134.15 65.7807C134.15 67.7192 135.937 69.2953 138.135 69.2953C139.963 69.2953 141.503 68.2083 141.955 66.7228L321.478 66.7228L370.878 23.1528L402.839 51.342L657.027 51.342L690.261 80.6544L844.766 80.6544L902.916 131.942L1044.99 131.942L1081.31 99.8759C1082.83 100.637 1084.78 100.456 1086.08 99.3143C1087.64 97.9375 1087.64 95.7091 1086.08 94.3504C1084.51 92.9735 1081.99 92.9735 1080.45 94.3504C1079.15 95.4917 1078.95 97.2128 1079.81 98.5534L1044.11 130.04L903.779 130.04L845.629 78.7521L691.124 78.7521Z" fill="url(#paint4_linear_31_554)"/>
<path d="M762.933 286.131L824.411 340.353L1026.3 340.353L1047.91 321.313L1258.92 321.313C1259.4 322.798 1260.92 323.885 1262.74 323.885C1264.94 323.885 1266.73 322.309 1266.73 320.371C1266.73 318.432 1264.94 316.856 1262.74 316.856C1260.92 316.856 1259.37 317.961 1258.92 319.429L1047.01 319.429L1025.42 338.469L825.273 338.469L763.796 284.247L493.792 284.247L445.851 326.53C444.331 325.769 442.379 325.951 441.085 327.092C439.524 328.469 439.524 330.697 441.085 332.056C442.646 333.433 445.173 333.433 446.713 332.056C448.007 330.914 448.213 329.193 447.35 327.853L494.675 286.113L762.933 286.113L762.933 286.131Z" fill="url(#paint5_linear_31_554)"/>
<path d="M317.987 335.86C319.815 335.86 321.355 334.773 321.807 333.288L406.947 333.288L473.909 274.228L789.78 274.228L829.033 239.608L1054.92 239.608L1104.75 283.558L1246.89 283.558C1247.36 285.044 1248.88 286.131 1250.71 286.131C1252.9 286.131 1254.69 284.555 1254.69 282.616C1254.69 280.678 1252.9 279.102 1250.71 279.102C1248.88 279.102 1247.34 280.207 1246.89 281.674L1105.63 281.674L1055.8 237.724L828.149 237.724L788.897 272.344L473.046 272.344L406.085 331.404L321.828 331.404C321.355 329.918 319.835 328.831 318.007 328.831C315.809 328.831 314.022 330.407 314.022 332.346C314.002 334.284 315.789 335.86 317.987 335.86Z" fill="url(#paint6_linear_31_554)"/>
<path d="M880.26 144.152C881.821 145.529 884.348 145.529 885.888 144.152C887.449 142.776 887.449 140.547 885.888 139.188C884.594 138.047 882.643 137.866 881.123 138.627L840.227 102.557L643.737 102.557L571.476 166.291L422.743 166.291C422.27 164.805 420.75 163.718 418.922 163.718C416.724 163.718 414.937 165.294 414.937 167.233C414.937 169.171 416.724 170.747 418.922 170.747C420.75 170.747 422.291 169.642 422.743 168.175L572.359 168.175L644.62 104.441L839.364 104.441L879.623 139.949C878.761 141.29 878.966 143.011 880.26 144.152Z" fill="url(#paint7_linear_31_554)"/>
<path d="M758.62 252.235L785.179 228.81C786.699 229.571 788.65 229.39 789.944 228.249C791.505 226.872 791.505 224.644 789.944 223.285C788.383 221.908 785.856 221.908 784.316 223.285C783.022 224.426 782.816 226.147 783.679 227.488L757.737 250.369L454.334 250.369L427.467 274.065C425.947 273.304 423.996 273.485 422.702 274.627C421.141 276.004 421.141 278.232 422.702 279.591C424.263 280.968 426.789 280.968 428.33 279.591C429.624 278.449 429.829 276.728 428.966 275.388L455.217 252.235L758.62 252.235Z" fill="url(#paint8_linear_31_554)"/>
<path d="M474.977 208.502C472.779 208.502 470.992 210.078 470.992 212.016C470.992 213.955 472.779 215.531 474.977 215.531C476.805 215.531 478.346 214.426 478.797 212.959L613.152 212.959L649.591 180.82L800.461 180.82L756.093 219.951C754.573 219.191 752.622 219.372 751.328 220.513C749.767 221.89 749.767 224.118 751.328 225.477C752.889 226.854 755.415 226.854 756.956 225.477C758.25 224.336 758.455 222.615 757.593 221.274L805.596 178.936L648.728 178.936L612.29 211.074L478.818 211.074C478.346 209.607 476.805 208.502 474.977 208.502Z" fill="url(#paint9_linear_31_554)"/>
<path d="M342.06 305.733L284.423 305.733C283.951 304.247 282.431 303.16 280.603 303.16C278.405 303.16 276.618 304.736 276.618 306.675C276.618 308.613 278.405 310.189 280.603 310.189C282.431 310.189 283.951 309.084 284.423 307.617L342.923 307.617L431.534 229.463L633.077 229.463L663.292 202.813L748.144 202.813L719.963 227.669C718.443 226.908 716.491 227.089 715.197 228.231C713.636 229.608 713.636 231.836 715.197 233.195C716.758 234.571 719.285 234.571 720.825 233.195C722.119 232.053 722.325 230.332 721.462 228.992L753.259 200.947L662.429 200.947L632.214 227.597L430.671 227.597L342.06 305.733Z" fill="url(#paint10_linear_31_554)"/>
<path d="M199.612 82.8283C201.44 82.8283 202.981 81.7413 203.432 80.2558L323.142 80.2558L349.311 57.1755L389.549 57.1755L406.988 72.5563L649.961 72.5563L667.4 87.9372L702.401 87.9372C702.873 89.4227 704.393 90.5097 706.221 90.5097C708.419 90.5097 710.206 88.9336 710.206 86.9951C710.206 85.0567 708.419 83.4805 706.221 83.4805C704.393 83.4805 702.852 84.5856 702.401 86.0531L668.283 86.0531L650.844 70.6722L407.892 70.6722L390.453 55.2914L348.468 55.2914L322.3 78.3717L203.474 78.3716C203.001 76.8861 201.481 75.7991 199.653 75.7991C197.455 75.7991 195.668 77.3753 195.668 79.3137C195.668 81.2522 197.414 82.8283 199.612 82.8283Z" fill="url(#paint11_linear_31_554)"/>
<path d="M415.266 122.884C414.794 121.398 413.274 120.311 411.445 120.311C409.248 120.311 407.461 121.887 407.461 123.826C407.461 125.764 409.248 127.34 411.445 127.34C413.274 127.34 414.814 126.253 415.266 124.768L571.743 124.768L616.85 84.9841L534.893 84.9841C534.421 83.4986 532.901 82.4116 531.073 82.4116C528.875 82.4116 527.088 83.9877 527.088 85.9262C527.088 87.8647 528.875 89.4408 531.073 89.4408C532.901 89.4408 534.442 88.3538 534.893 86.8682L611.735 86.8682L570.86 122.902L415.266 122.902L415.266 122.884Z" fill="url(#paint12_linear_31_554)"/>
<path d="M342.471 115.202L215.12 115.202L165.597 158.881L86.311 158.881C85.8386 157.395 84.3187 156.308 82.4905 156.308C80.2927 156.308 78.5057 157.885 78.5057 159.823C78.5057 161.761 80.2927 163.338 82.4905 163.338C84.3187 163.338 85.8386 162.251 86.311 160.765L166.46 160.765L215.983 117.086L341.567 117.086L382.052 152.794L561.103 152.794L594.522 123.318C596.042 124.079 597.994 123.898 599.288 122.757C600.849 121.38 600.849 119.152 599.288 117.793C597.727 116.416 595.2 116.416 593.66 117.793C592.366 118.934 592.16 120.655 593.023 121.996L560.24 150.91L382.935 150.91L342.471 115.202Z" fill="url(#paint13_linear_31_554)"/>
<path d="M202.981 251.42L242.541 286.312L336.247 286.312L396.43 233.213C397.95 233.974 399.902 233.792 401.196 232.651C402.757 231.274 402.757 229.046 401.196 227.687C399.635 226.31 397.108 226.31 395.568 227.687C394.274 228.828 394.068 230.55 394.931 231.89L335.343 284.446L243.404 284.446L203.843 249.554L46.4419 249.554C45.9695 248.068 44.4495 246.981 42.6214 246.981C40.4236 246.981 38.6366 248.557 38.6366 250.496C38.6366 252.434 40.4236 254.01 42.6214 254.01C44.4495 254.01 45.99 252.923 46.4419 251.438L202.981 251.438L202.981 251.42Z" fill="url(#paint14_linear_31_554)"/>
<path d="M35.1447 122.395C36.9728 122.395 38.5134 121.308 38.9653 119.822L146.227 119.822L178.62 91.2524L375.849 91.2525L389.549 103.336L530.436 103.336C530.908 104.822 532.428 105.909 534.257 105.909C536.454 105.909 538.241 104.333 538.241 102.394C538.241 100.456 536.454 98.8795 534.257 98.8795C532.428 98.8795 530.888 99.9846 530.436 101.452L390.412 101.452L376.711 89.3684L177.716 89.3683L145.324 117.938L38.9447 117.938C38.4723 116.452 36.9522 115.365 35.1241 115.365C32.9263 115.365 31.1394 116.942 31.1394 118.88C31.1394 120.818 32.9468 122.395 35.1447 122.395Z" fill="url(#paint15_linear_31_554)"/>
<path d="M114.636 226.582C114.636 228.52 116.423 230.097 118.621 230.097C120.449 230.097 121.99 228.992 122.442 227.524L227.567 227.524L254.989 251.691L334.83 251.691C335.302 253.177 336.822 254.264 338.65 254.264C340.848 254.264 342.635 252.688 342.635 250.749C342.635 248.811 340.848 247.235 338.65 247.235C336.822 247.235 335.282 248.34 334.83 249.807L265.3 249.807C265.485 249.536 265.629 249.246 265.732 248.938L333.741 248.938L397.909 192.342L539.166 192.342C539.638 193.828 541.158 194.915 542.986 194.915C545.184 194.915 546.971 193.338 546.971 191.4C546.971 189.462 545.184 187.885 542.986 187.885C541.158 187.885 539.618 188.991 539.166 190.458L397.026 190.458L332.858 247.054L265.732 247.054C265.259 245.568 263.739 244.481 261.911 244.481C259.713 244.481 257.926 246.057 257.926 247.996C257.926 248.666 258.152 249.282 258.522 249.807L255.872 249.807L228.471 225.64L122.462 225.64C121.99 224.154 120.47 223.067 118.642 223.067C116.423 223.067 114.636 224.644 114.636 226.582Z" fill="url(#paint16_linear_31_554)"/>
<path d="M4.00544 194.371C5.83353 194.371 7.35349 193.266 7.82593 191.798L176.75 191.799L235.927 139.605L333.474 139.605L373.528 174.932L326.223 216.654C324.703 215.893 322.752 216.075 321.458 217.216C319.897 218.593 319.897 220.821 321.458 222.18C323.019 223.557 325.545 223.557 327.086 222.18C328.38 221.038 328.585 219.317 327.723 217.977L376.527 174.932L334.357 137.739L235.044 137.739L175.867 189.933L7.80536 189.933C7.33292 188.447 5.81296 187.36 3.98487 187.36C1.78705 187.36 3.87552e-06 188.936 3.65635e-06 190.875C0.0205723 192.813 1.78705 194.371 4.00544 194.371Z" fill="url(#paint17_linear_31_554)"/>
<path d="M124.229 203.284C122.031 203.284 120.244 204.86 120.244 206.799C120.244 208.737 122.031 210.313 124.229 210.313C126.057 210.313 127.597 209.208 128.049 207.741L287.012 207.741L316.056 182.124C317.576 182.885 319.527 182.704 320.821 181.563C322.382 180.186 322.382 177.958 320.821 176.599C319.26 175.222 316.734 175.222 315.193 176.599C313.899 177.74 313.694 179.461 314.556 180.802L286.128 205.875L128.049 205.875C127.597 204.371 126.057 203.284 124.229 203.284Z" fill="url(#paint18_linear_31_554)"/>
<path d="M251.251 159.714L232.785 176.001C231.265 175.24 229.314 175.421 228.019 176.563C226.458 177.939 226.458 180.168 228.019 181.527C229.581 182.903 232.107 182.903 233.648 181.527C234.942 180.385 235.147 178.664 234.284 177.324L252.113 161.598L305.19 161.598L278.878 184.806C277.358 184.045 275.406 184.226 274.112 185.367C272.551 186.744 272.551 188.972 274.112 190.331C275.673 191.708 278.2 191.708 279.74 190.331C281.034 189.19 281.24 187.469 280.377 186.128L310.304 159.732L251.251 159.732L251.251 159.714Z" fill="url(#paint19_linear_31_554)"/>
</g>
<defs>
<linearGradient id="paint0_linear_31_554" x1="765.445" y1="357.356" x2="346.799" y2="357.356" gradientUnits="userSpaceOnUse">
<stop/>
<stop offset="0.1072" stop-color="#141414"/>
<stop offset="0.326" stop-color="#464646"/>
<stop offset="0.6375" stop-color="#989898"/>
<stop offset="1" stop-color="white"/>
</linearGradient>
<linearGradient id="paint1_linear_31_554" x1="667.429" y1="329.325" x2="99.2683" y2="329.325" gradientUnits="userSpaceOnUse">
<stop/>
<stop offset="0.1072" stop-color="#141414"/>
<stop offset="0.326" stop-color="#464646"/>
<stop offset="0.6375" stop-color="#989898"/>
<stop offset="1" stop-color="white"/>
</linearGradient>
<linearGradient id="paint2_linear_31_554" x1="893.369" y1="35.7275" x2="428.203" y2="35.7274" gradientUnits="userSpaceOnUse">
<stop/>
<stop offset="0.1072" stop-color="#141414"/>
<stop offset="0.326" stop-color="#464646"/>
<stop offset="0.6375" stop-color="#989898"/>
<stop offset="1" stop-color="white"/>
</linearGradient>
<linearGradient id="paint3_linear_31_554" x1="474.72" y1="28.7752" x2="130.832" y2="28.7752" gradientUnits="userSpaceOnUse">
<stop/>
<stop offset="0.1072" stop-color="#141414"/>
<stop offset="0.326" stop-color="#464646"/>
<stop offset="0.6375" stop-color="#989898"/>
<stop offset="1" stop-color="white"/>
</linearGradient>
<linearGradient id="paint4_linear_31_554" x1="1087.24" y1="76.2019" x2="134.156" y2="76.2018" gradientUnits="userSpaceOnUse">
<stop/>
<stop offset="0.1072" stop-color="#141414"/>
<stop offset="0.326" stop-color="#464646"/>
<stop offset="0.6375" stop-color="#989898"/>
<stop offset="1" stop-color="white"/>
</linearGradient>
<linearGradient id="paint5_linear_31_554" x1="1266.74" y1="312.3" x2="439.911" y2="312.3" gradientUnits="userSpaceOnUse">
<stop/>
<stop offset="0.1072" stop-color="#141414"/>
<stop offset="0.326" stop-color="#464646"/>
<stop offset="0.6375" stop-color="#989898"/>
<stop offset="1" stop-color="white"/>
</linearGradient>
<linearGradient id="paint6_linear_31_554" x1="1254.71" y1="286.799" x2="313.996" y2="286.799" gradientUnits="userSpaceOnUse">
<stop/>
<stop offset="0.1072" stop-color="#141414"/>
<stop offset="0.326" stop-color="#464646"/>
<stop offset="0.6375" stop-color="#989898"/>
<stop offset="1" stop-color="white"/>
</linearGradient>
<linearGradient id="paint7_linear_31_554" x1="887.064" y1="136.657" x2="414.918" y2="136.657" gradientUnits="userSpaceOnUse">
<stop/>
<stop offset="0.1072" stop-color="#141414"/>
<stop offset="0.326" stop-color="#464646"/>
<stop offset="0.6375" stop-color="#989898"/>
<stop offset="1" stop-color="white"/>
</linearGradient>
<linearGradient id="paint8_linear_31_554" x1="791.127" y1="251.441" x2="421.539" y2="251.441" gradientUnits="userSpaceOnUse">
<stop/>
<stop offset="0.1072" stop-color="#141414"/>
<stop offset="0.326" stop-color="#464646"/>
<stop offset="0.6375" stop-color="#989898"/>
<stop offset="1" stop-color="white"/>
</linearGradient>
<linearGradient id="paint9_linear_31_554" x1="805.599" y1="202.724" x2="470.99" y2="202.724" gradientUnits="userSpaceOnUse">
<stop/>
<stop offset="0.1072" stop-color="#141414"/>
<stop offset="0.326" stop-color="#464646"/>
<stop offset="0.6375" stop-color="#989898"/>
<stop offset="1" stop-color="white"/>
</linearGradient>
<linearGradient id="paint10_linear_31_554" x1="753.269" y1="255.548" x2="276.618" y2="255.548" gradientUnits="userSpaceOnUse">
<stop/>
<stop offset="0.1072" stop-color="#141414"/>
<stop offset="0.326" stop-color="#464646"/>
<stop offset="0.6375" stop-color="#989898"/>
<stop offset="1" stop-color="white"/>
</linearGradient>
<linearGradient id="paint11_linear_31_554" x1="710.216" y1="72.9188" x2="195.63" y2="72.9188" gradientUnits="userSpaceOnUse">
<stop/>
<stop offset="0.1072" stop-color="#141414"/>
<stop offset="0.326" stop-color="#464646"/>
<stop offset="0.6375" stop-color="#989898"/>
<stop offset="1" stop-color="white"/>
</linearGradient>
<linearGradient id="paint12_linear_31_554" x1="616.833" y1="104.871" x2="407.445" y2="104.871" gradientUnits="userSpaceOnUse">
<stop/>
<stop offset="0.1072" stop-color="#141414"/>
<stop offset="0.326" stop-color="#464646"/>
<stop offset="0.6375" stop-color="#989898"/>
<stop offset="1" stop-color="white"/>
</linearGradient>
<linearGradient id="paint13_linear_31_554" x1="600.491" y1="139.267" x2="78.5061" y2="139.266" gradientUnits="userSpaceOnUse">
<stop/>
<stop offset="0.1072" stop-color="#141414"/>
<stop offset="0.326" stop-color="#464646"/>
<stop offset="0.6375" stop-color="#989898"/>
<stop offset="1" stop-color="white"/>
</linearGradient>
<linearGradient id="paint14_linear_31_554" x1="402.381" y1="256.476" x2="38.6345" y2="256.476" gradientUnits="userSpaceOnUse">
<stop/>
<stop offset="0.1072" stop-color="#141414"/>
<stop offset="0.326" stop-color="#464646"/>
<stop offset="0.6375" stop-color="#989898"/>
<stop offset="1" stop-color="white"/>
</linearGradient>
<linearGradient id="paint15_linear_31_554" x1="538.269" y1="105.887" x2="31.1609" y2="105.886" gradientUnits="userSpaceOnUse">
<stop/>
<stop offset="0.1072" stop-color="#141414"/>
<stop offset="0.326" stop-color="#464646"/>
<stop offset="0.6375" stop-color="#989898"/>
<stop offset="1" stop-color="white"/>
</linearGradient>
<linearGradient id="paint16_linear_31_554" x1="546.989" y1="221.083" x2="114.642" y2="221.083" gradientUnits="userSpaceOnUse">
<stop/>
<stop offset="0.1072" stop-color="#141414"/>
<stop offset="0.326" stop-color="#464646"/>
<stop offset="0.6375" stop-color="#989898"/>
<stop offset="1" stop-color="white"/>
</linearGradient>
<linearGradient id="paint17_linear_31_554" x1="376.548" y1="180.47" x2="0.0111183" y2="180.47" gradientUnits="userSpaceOnUse">
<stop/>
<stop offset="0.1072" stop-color="#141414"/>
<stop offset="0.326" stop-color="#464646"/>
<stop offset="0.6375" stop-color="#989898"/>
<stop offset="1" stop-color="white"/>
</linearGradient>
<linearGradient id="paint18_linear_31_554" x1="322.018" y1="192.93" x2="120.246" y2="192.93" gradientUnits="userSpaceOnUse">
<stop/>
<stop offset="0.1072" stop-color="#141414"/>
<stop offset="0.326" stop-color="#464646"/>
<stop offset="0.6375" stop-color="#989898"/>
<stop offset="1" stop-color="white"/>
</linearGradient>
<linearGradient id="paint19_linear_31_554" x1="310.326" y1="175.525" x2="226.856" y2="175.525" gradientUnits="userSpaceOnUse">
<stop/>
<stop offset="0.1072" stop-color="#141414"/>
<stop offset="0.326" stop-color="#464646"/>
<stop offset="0.6375" stop-color="#989898"/>
<stop offset="1" stop-color="white"/>
</linearGradient>
</defs>
</svg>
