<svg width="1000" height="422" viewBox="0 0 1000 422" fill="none" xmlns="http://www.w3.org/2000/svg">
<path d="M94.59 212.88C94.59 185.68 143.28 174.97 172.78 159.05C216.88 135.25 255.1 96.58 273.32 114.34C295.12 135.58 244.26 185.29 244.26 212.68C244.26 240.07 295.12 289.78 273.32 311.02C255.1 328.78 216.88 290.11 172.78 266.31C143.28 250.39 94.59 239.68 94.59 212.48V212.88Z" fill="#01ECB1"/>
<path d="M133.05 123.98L221.74 212.67L133.05 301.36V123.98ZM122.85 99.36V326L236.17 212.68L122.85 99.36Z" fill="white"/>
<path d="M385.98 234.3L366.41 209.34L361.3 214.23V234.3H351.09V178.28H361.3V202.67L385.69 178.28H397.81L373.7 202.81L398.45 234.29H385.98V234.3Z" fill="white"/>
<path d="M497.23 235.01C483.83 235.01 473.97 229.9 473.97 217.28C473.97 216.15 473.97 178.28 473.97 178.28H484.18C484.18 178.28 484.18 215.29 484.18 216.36C484.18 222.6 488.86 226.22 497.44 226.22C504.88 226.22 510.27 222.67 510.27 216.43C510.27 215.37 510.27 178.28 510.27 178.28H520.48C520.48 178.28 520.48 216.85 520.48 217.85C520.48 229.34 510.84 235.01 497.23 235.01Z" fill="white"/>
<path d="M637.54 234.3L613.22 193.32V234.3H603.43V178.28H615.48L638.95 218.06V178.28H648.74V234.3H637.54Z" fill="white"/>
<path d="M736.94 234.3H726.45L748.01 178.28H760.84L781.33 234.3H770.7L765.74 220.69H742.13L736.94 234.3ZM755.66 192.46L754.24 187.71L752.82 192.53L745.37 211.89H762.6L755.66 192.46Z" fill="white"/>
<path d="M859.39 234.3V178.28H869.81V234.3H859.39Z" fill="white"/>
</svg>
