<?xml version="1.0" standalone="no"?>
<!DOCTYPE svg PUBLIC "-//W3C//DTD SVG 20010904//EN"
 "http://www.w3.org/TR/2001/REC-SVG-20010904/DTD/svg10.dtd">
<svg version="1.0" xmlns="http://www.w3.org/2000/svg"
 width="410.000000pt" height="410.000000pt" viewBox="0 0 410.000000 410.000000"
 preserveAspectRatio="xMidYMid meet">
<metadata>
Created by potrace 1.14, written by Peter Selinger 2001-2017
</metadata>
<g transform="translate(0.000000,410.000000) scale(0.100000,-0.100000)"
fill="#000000" stroke="none">
<path d="M580 3280 c0 -5 -18 -10 -40 -10 -22 0 -40 -4 -40 -10 0 -5 -9 -10
-20 -10 -11 0 -20 -4 -20 -10 0 -5 -9 -10 -20 -10 -11 0 -20 -4 -20 -10 0 -5
-7 -10 -16 -10 -9 0 -29 -13 -44 -30 -15 -16 -33 -30 -40 -30 -16 0 -40 -25
-40 -42 0 -8 -9 -20 -20 -28 -11 -8 -20 -21 -20 -30 0 -9 -9 -22 -20 -30 -12
-8 -20 -26 -20 -42 0 -15 -4 -28 -10 -28 -5 0 -10 -13 -10 -30 0 -16 -4 -30
-10 -30 -7 0 -10 -283 -10 -830 0 -547 3 -830 10 -830 6 0 10 -18 10 -40 0
-22 5 -40 10 -40 6 0 10 -9 10 -20 0 -11 5 -20 10 -20 6 0 10 -9 10 -20 0 -11
5 -20 10 -20 6 0 10 -7 10 -15 0 -20 125 -145 145 -145 8 0 15 -4 15 -10 0 -5
9 -10 20 -10 11 0 20 -4 20 -10 0 -5 9 -10 20 -10 11 0 20 -4 20 -10 0 -5 14
-10 30 -10 17 0 30 -4 30 -10 0 -7 510 -10 1510 -10 1000 0 1510 3 1510 10 0
6 14 10 30 10 17 0 30 5 30 10 0 6 8 10 18 10 10 0 24 9 32 20 8 11 20 20 27
20 19 0 163 146 163 165 0 8 5 15 10 15 6 0 10 9 10 20 0 11 5 20 10 20 6 0
10 14 10 30 0 17 5 30 10 30 7 0 10 293 10 860 0 567 -3 860 -10 860 -5 0 -10
14 -10 30 0 17 -4 30 -10 30 -5 0 -10 9 -10 20 0 11 -4 20 -10 20 -5 0 -10 8
-10 18 0 10 -9 24 -20 32 -11 8 -20 20 -20 27 0 17 -86 103 -103 103 -7 0 -19
9 -27 20 -8 11 -22 20 -32 20 -10 0 -18 5 -18 10 0 6 -13 10 -30 10 -16 0 -30
5 -30 10 0 6 -18 10 -40 10 -22 0 -40 5 -40 10 0 7 -493 10 -1460 10 -967 0
-1460 -3 -1460 -10z m2900 -240 c0 -5 14 -10 30 -10 17 0 30 -4 30 -10 0 -5 7
-10 15 -10 20 0 85 -65 85 -85 0 -8 5 -15 10 -15 6 0 10 -9 10 -20 0 -11 5
-20 10 -20 7 0 10 -280 10 -820 0 -540 -3 -820 -10 -820 -5 0 -10 -8 -10 -18
0 -10 -9 -24 -20 -32 -11 -8 -20 -22 -20 -32 0 -11 -7 -18 -18 -18 -10 0 -24
-9 -32 -20 -8 -11 -22 -20 -32 -20 -10 0 -18 -4 -18 -10 0 -7 -497 -10 -1470
-10 -973 0 -1470 3 -1470 10 0 6 -11 10 -25 10 -29 0 -115 79 -115 105 0 8 -4
15 -10 15 -5 0 -10 9 -10 20 0 11 -4 20 -10 20 -7 0 -10 273 -10 800 0 527 3
800 10 800 6 0 10 13 10 28 0 16 8 34 20 42 11 8 20 20 20 28 0 17 25 42 42
42 8 0 20 9 28 20 10 14 26 20 52 20 21 0 38 5 38 10 0 7 483 10 1430 10 947
0 1430 -3 1430 -10z"/>
<path d="M1240 2540 c0 -5 -18 -10 -40 -10 -22 0 -40 -4 -40 -10 0 -5 -13 -10
-30 -10 -16 0 -30 -4 -30 -10 0 -5 -8 -10 -18 -10 -10 0 -24 -9 -32 -20 -8
-11 -20 -20 -27 -20 -19 0 -123 -106 -123 -125 0 -8 -4 -15 -10 -15 -5 0 -10
-9 -10 -20 0 -11 -4 -20 -10 -20 -5 0 -10 -9 -10 -20 0 -11 -4 -20 -10 -20 -5
0 -10 -18 -10 -40 0 -22 -4 -40 -10 -40 -6 0 -10 -40 -10 -100 0 -60 4 -100
10 -100 6 0 10 -13 10 -30 0 -16 5 -30 10 -30 6 0 10 -9 10 -20 0 -11 5 -20
10 -20 6 0 10 -9 10 -20 0 -11 5 -20 10 -20 6 0 10 -7 10 -15 0 -20 145 -165
165 -165 8 0 15 -4 15 -10 0 -5 9 -10 20 -10 11 0 20 -4 20 -10 0 -5 14 -10
30 -10 17 0 30 -4 30 -10 0 -6 50 -10 130 -10 80 0 130 4 130 10 0 6 14 10 30
10 17 0 30 5 30 10 0 6 9 10 20 10 11 0 20 5 20 10 0 6 9 10 20 10 11 0 20 5
20 10 0 6 7 10 15 10 19 0 125 104 125 123 0 7 9 19 20 27 12 8 20 26 20 42 0
15 5 28 10 28 6 0 10 14 10 30 l0 30 370 0 370 0 0 -85 c0 -84 1 -86 35 -120
19 -19 41 -35 50 -35 8 0 15 -4 15 -10 0 -5 9 -10 20 -10 11 0 20 5 20 10 0 6
11 10 25 10 29 0 75 40 75 65 0 8 5 15 10 15 6 0 10 33 10 80 l0 80 110 0 110
0 0 -80 c0 -47 4 -80 10 -80 6 0 10 -7 10 -15 0 -24 46 -65 74 -65 13 0 27 -6
30 -12 5 -10 7 -10 12 0 3 6 17 12 30 12 15 0 39 14 59 35 l35 34 0 176 c0
110 -4 175 -10 175 -5 0 -10 7 -10 16 0 20 -24 44 -44 44 -9 0 -16 5 -16 10 0
7 -240 10 -700 10 l-700 0 0 30 c0 17 -4 30 -10 30 -5 0 -10 8 -10 18 0 10 -9
24 -20 32 -11 8 -20 20 -20 27 0 19 -126 143 -145 143 -8 0 -15 5 -15 10 0 6
-9 10 -20 10 -11 0 -20 5 -20 10 0 6 -9 10 -20 10 -11 0 -20 5 -20 10 0 6 -18
10 -40 10 -22 0 -40 5 -40 10 0 6 -33 10 -80 10 -47 0 -80 -4 -80 -10z m80
-260 c0 -5 18 -10 40 -10 22 0 40 -4 40 -10 0 -5 7 -10 15 -10 9 0 36 -20 60
-45 25 -24 45 -51 45 -60 0 -8 5 -15 10 -15 6 0 10 -30 10 -70 0 -40 -4 -70
-10 -70 -5 0 -10 -9 -10 -20 0 -11 -4 -20 -10 -20 -5 0 -10 -7 -10 -15 0 -20
-45 -65 -65 -65 -8 0 -15 -4 -15 -10 0 -5 -9 -10 -20 -10 -11 0 -20 -4 -20
-10 0 -6 -30 -10 -70 -10 -40 0 -70 4 -70 10 0 6 -8 10 -18 10 -10 0 -24 9
-32 20 -8 11 -22 20 -32 20 -11 0 -18 7 -18 18 0 10 -9 24 -20 32 -14 10 -20
26 -20 52 0 21 -4 38 -10 38 -5 0 -10 9 -10 20 0 11 5 20 10 20 6 0 10 18 10
40 0 22 5 40 10 40 6 0 10 7 10 15 0 20 65 85 85 85 8 0 15 5 15 10 0 6 18 10
40 10 22 0 40 5 40 10 0 6 5 10 10 10 6 0 10 -4 10 -10z"/>
</g>
</svg>
