<svg width="394" height="1281" viewBox="0 0 394 1281" fill="none" xmlns="http://www.w3.org/2000/svg">
<g opacity="0.11">
<path d="M2.53749 1145.76C2.53749 1147.96 4.33101 1149.75 6.53684 1149.75C8.74267 1149.75 10.5362 1147.96 10.5362 1145.76C10.5362 1143.93 9.27867 1142.39 7.60884 1141.94L7.60883 1084.53L-39.0847 1038.01L-39.0847 866.843C-37.3942 866.371 -36.1573 864.851 -36.1573 863.023C-36.1573 860.825 -37.9508 859.038 -40.1567 859.038C-42.3625 859.038 -44.156 860.825 -44.156 863.023C-44.156 864.851 -42.8985 866.391 -41.2287 866.843L-41.2286 1038.89L5.46485 1085.41L5.46485 1141.94C3.7744 1142.41 2.53749 1143.93 2.53749 1145.76Z" fill="url(#paint0_linear_39_873)"/>
<path d="M-10.8006 1021.16C-10.8006 1023.36 -9.00707 1025.15 -6.80124 1025.15C-4.59541 1025.15 -2.80189 1023.36 -2.80189 1021.16C-2.80189 1019.34 -4.05942 1017.79 -5.72925 1017.34L-5.72926 819.6L25.1111 788.872L25.1111 579.442C26.8016 578.969 28.0385 577.449 28.0385 575.621C28.0385 573.423 26.2449 571.636 24.0391 571.636C21.8333 571.636 20.0398 573.423 20.0398 575.621C20.0398 577.449 21.2767 578.99 22.9671 579.442L22.9671 787.989L-7.87324 818.717L-7.87324 1017.34C-9.56368 1017.82 -10.8006 1019.34 -10.8006 1021.16Z" fill="url(#paint1_linear_39_873)"/>
<path d="M13.8553 762.005C13.8553 760.177 12.5977 758.636 10.9279 758.184L10.9279 546.269L-34.0958 501.409L-34.0958 355.161C-32.4053 354.688 -31.1684 353.168 -31.1684 351.34C-31.1684 349.142 -32.9619 347.355 -35.1678 347.355C-37.3736 347.355 -39.1671 349.142 -39.1671 351.34C-39.1671 353.168 -37.9096 354.709 -36.2398 355.161L-36.2398 502.292L8.7839 547.152L8.7839 758.184C7.09346 758.657 5.85655 760.177 5.85655 762.005C5.85655 764.203 7.65007 765.99 9.8559 765.99C12.0823 765.99 13.8553 764.203 13.8553 762.005Z" fill="url(#paint2_linear_39_873)"/>
<path d="M42.1393 515.581L42.1393 660.165C40.4489 660.638 39.212 662.158 39.212 663.986C39.212 666.184 41.0055 667.971 43.2113 667.971C45.4171 667.971 47.2107 666.184 47.2107 663.986C47.2107 662.158 45.9531 660.617 44.2833 660.165L44.2833 514.698L-6.57447 464.025L-6.57448 306.254L25.5234 274.272L25.5234 107.628C27.2139 107.156 28.4508 105.636 28.4508 103.807C28.4508 101.61 26.6573 99.8226 24.4514 99.8226C22.2456 99.8226 20.4521 101.61 20.4521 103.807C20.4521 105.636 21.689 107.176 23.3794 107.628L23.3794 273.389L-8.71846 305.371L-8.71845 464.908L42.1393 515.581Z" fill="url(#paint3_linear_39_873)"/>
<path d="M357.882 1088.91L313.931 1132.7L313.931 1259.9C312.24 1260.38 311.003 1261.9 311.003 1263.73C311.003 1265.92 312.797 1267.71 315.003 1267.71C317.208 1267.71 319.002 1265.92 319.002 1263.73C319.002 1261.9 317.744 1260.36 316.075 1259.9L316.074 1133.6L359.408 1090.43C360.933 1091.29 362.892 1091.08 364.19 1089.79C365.757 1088.23 365.757 1085.7 364.19 1084.16C362.624 1082.6 360.088 1082.6 358.542 1084.16C357.222 1085.43 357.016 1087.39 357.882 1088.91Z" fill="url(#paint4_linear_39_873)"/>
<path d="M348.997 866.35C348.997 864.153 347.203 862.365 344.998 862.365C342.792 862.365 340.998 864.153 340.998 866.35C340.998 868.178 342.235 869.719 343.926 870.171L343.926 1074.57L319.765 1098.64C318.239 1097.78 316.281 1097.98 314.982 1099.28C313.415 1100.84 313.415 1103.37 314.982 1104.91C316.549 1106.47 319.084 1106.47 320.63 1104.91C321.929 1103.61 322.135 1101.66 321.27 1100.14L346.049 1075.45L346.049 870.171C347.76 869.698 348.997 868.178 348.997 866.35Z" fill="url(#paint5_linear_39_873)"/>
<path d="M378.6 432.742C378.6 430.544 376.807 428.757 374.601 428.757C372.395 428.757 370.602 430.544 370.602 432.742C370.602 434.57 371.859 436.111 373.529 436.562L373.529 647.184L328.093 692.455L328.093 792.179L363.943 827.899L363.943 886.11C362.253 886.583 361.016 888.103 361.016 889.931C361.016 892.129 362.809 893.916 365.015 893.916C367.221 893.916 369.014 892.129 369.014 889.931C369.014 888.103 367.757 886.562 366.087 886.11L366.087 827.036L330.237 791.316L330.237 693.338L375.673 648.067L375.673 436.562C377.343 436.09 378.6 434.57 378.6 432.742Z" fill="url(#paint6_linear_39_873)"/>
<path d="M328.485 135.378C328.485 137.206 329.722 138.747 331.412 139.199L331.412 310.424L388.929 367.752L388.929 467.476C387.238 467.948 386.001 469.468 386.001 471.296C386.001 473.494 387.795 475.281 390.001 475.281C392.207 475.281 394 473.494 394 471.296C394 469.468 392.743 467.928 391.073 467.476L391.073 366.869L333.556 309.54L333.556 139.199C335.247 138.726 336.484 137.206 336.484 135.378C336.484 133.18 334.69 131.393 332.484 131.393C330.278 131.393 328.485 133.16 328.485 135.378Z" fill="url(#paint7_linear_39_873)"/>
<path d="M295.645 1260.4C295.645 1258.57 294.387 1257.03 292.717 1256.58L292.717 1117.77L226.027 1051.32L226.027 901.803L180.406 856.347C181.271 854.827 181.065 852.876 179.767 851.582C178.2 850.021 175.664 850.021 174.118 851.582C172.551 853.143 172.551 855.669 174.118 857.21C175.417 858.504 177.375 858.709 178.901 857.847L223.904 902.686L223.904 1052.18L290.594 1118.63L290.594 1256.58C288.904 1257.05 287.667 1258.57 287.667 1260.4C287.667 1262.6 289.46 1264.38 291.666 1264.38C293.851 1264.38 295.645 1262.6 295.645 1260.4Z" fill="url(#paint8_linear_39_873)"/>
<path d="M304.386 691.675L337.741 658.44L337.741 404.273L370.684 371.429L320.218 321.146L320.218 142.506C321.909 142.033 323.145 140.513 323.145 138.685C323.145 136.487 321.352 134.7 319.146 134.7C316.94 134.7 315.147 136.487 315.147 138.685C315.147 140.513 316.384 142.054 318.074 142.506L318.074 322.029L367.654 371.429L335.576 403.39L335.576 657.577L302.221 690.812L302.221 845.317L243.859 903.467L243.859 1045.55L280.348 1081.86C279.482 1083.38 279.689 1085.33 280.987 1086.63C282.554 1088.19 285.09 1088.19 286.636 1086.63C288.203 1085.06 288.203 1082.54 286.636 1081C285.337 1079.7 283.379 1079.5 281.853 1080.36L246.024 1044.66L246.024 904.33L304.386 846.18L304.386 691.675Z" fill="url(#paint9_linear_39_873)"/>
<path d="M315.394 890.013C316.961 888.452 316.961 885.925 315.394 884.385C313.827 882.824 311.292 882.824 309.746 884.385C308.447 885.679 308.241 887.63 309.106 889.15L291.419 906.774L291.419 1041.4L308.694 1058.61C307.828 1060.13 308.035 1062.08 309.333 1063.37C310.9 1064.94 313.436 1064.94 314.982 1063.37C316.549 1061.81 316.549 1059.29 314.982 1057.75C313.683 1056.45 311.725 1056.25 310.199 1057.11L293.542 1040.51L293.542 907.657L310.611 890.65C312.137 891.492 314.095 891.307 315.394 890.013Z" fill="url(#paint10_linear_39_873)"/>
<path d="M68.4031 763.484L6.70173 824.961L6.70174 1026.85L28.3684 1048.46L28.3684 1259.47C26.6779 1259.95 25.441 1261.47 25.441 1263.29C25.441 1265.49 27.2345 1267.28 29.4404 1267.28C31.6462 1267.28 33.4397 1265.49 33.4397 1263.29C33.4397 1261.47 32.1822 1259.93 30.5123 1259.47L30.5123 1047.56L8.84573 1025.97L8.84572 825.824L70.5471 764.347L70.5471 494.343L22.4311 446.401C23.297 444.881 23.0908 442.93 21.7921 441.636C20.2253 440.075 17.6896 440.075 16.1435 441.636C14.5767 443.197 14.5767 445.723 16.1435 447.264C17.4423 448.558 19.4007 448.763 20.9262 447.901L68.4237 495.226L68.4237 763.484L68.4031 763.484Z" fill="url(#paint11_linear_39_873)"/>
<path d="M74.2785 1072.06C72.7117 1073.62 72.7117 1076.15 74.2785 1077.69C75.8452 1079.25 78.3809 1079.25 79.927 1077.69C81.2258 1076.4 81.4319 1074.45 80.5661 1072.93L94.0897 1059.45L94.0897 847.391L60.0127 813.438L60.0127 799.573C61.7032 799.101 62.9401 797.581 62.9401 795.753C62.9401 793.555 61.1465 791.768 58.9407 791.768C56.7349 791.768 54.9414 793.555 54.9414 795.753C54.9414 797.581 56.1783 799.121 57.8687 799.573L57.8687 814.321L91.9457 848.275L91.9457 1058.57L79.0406 1071.43C77.5357 1070.56 75.5772 1070.77 74.2785 1072.06Z" fill="url(#paint12_linear_39_873)"/>
<path d="M63.8265 1049.22L48.8186 1064.18L48.8186 1208.82C47.1282 1209.29 45.8913 1210.81 45.8913 1212.64C45.8913 1214.84 47.6848 1216.63 49.8906 1216.63C52.0965 1216.63 53.89 1214.84 53.89 1212.64C53.89 1210.81 52.6325 1209.27 50.9626 1208.82L50.9626 1065.06L65.9705 1050.11L65.9705 869.801L47.4374 851.335C48.3032 849.815 48.0971 847.864 46.7983 846.57C45.2316 845.009 42.6959 845.009 41.1498 846.57C39.583 848.131 39.583 850.658 41.1498 852.198C42.4485 853.492 44.407 853.698 45.9325 852.835L63.8265 870.664L63.8265 1049.22Z" fill="url(#paint13_linear_39_873)"/>
<path d="M81.1433 1117.54C79.5766 1119.1 79.5766 1121.63 81.1433 1123.17C82.7101 1124.73 85.2458 1124.73 86.7919 1123.17C88.0907 1121.87 88.2968 1119.92 87.431 1118.4L141.608 1064.42L141.608 822.456L97.1407 778.15C98.0066 776.63 97.8004 774.678 96.5017 773.384C94.9349 771.823 92.3992 771.823 90.8531 773.384C89.2863 774.945 89.2863 777.472 90.8531 779.013C92.1518 780.307 94.1103 780.512 95.6358 779.649L139.484 823.339L139.484 1063.56L85.9467 1116.9C84.4212 1116.06 82.4421 1116.25 81.1433 1117.54Z" fill="url(#paint14_linear_39_873)"/>
<path d="M11.8143 318.537C11.8143 320.365 13.0512 321.906 14.7417 322.358L14.7417 407.498L81.9473 474.46L81.9473 790.33L121.343 829.583L121.343 1055.47L71.3305 1105.3L71.3305 1247.44C69.6401 1247.91 68.4031 1249.43 68.4031 1251.26C68.4031 1253.46 70.1967 1255.24 72.4025 1255.24C74.6083 1255.24 76.4018 1253.46 76.4018 1251.26C76.4018 1249.43 75.1443 1247.89 73.4745 1247.44L73.4745 1106.18L123.487 1056.35L123.487 828.7L84.0913 789.447L84.0913 473.597L16.8856 406.635L16.8856 322.378C18.5761 321.906 19.813 320.386 19.813 318.558C19.813 316.36 18.0195 314.573 15.8136 314.573C13.6078 314.553 11.8143 316.34 11.8143 318.537Z" fill="url(#paint15_linear_39_873)"/>
<path d="M229.965 880.811C228.398 882.372 228.398 884.898 229.965 886.439C231.531 888 234.067 888 235.613 886.439C236.912 885.145 237.118 883.194 236.252 881.674L277.297 840.778L277.297 644.288L204.773 572.027L204.773 423.293C206.463 422.821 207.7 421.301 207.7 419.473C207.7 417.275 205.907 415.488 203.701 415.488C201.495 415.488 199.701 417.275 199.701 419.473C199.701 421.301 200.959 422.841 202.629 423.293L202.629 572.91L275.153 645.171L275.153 839.915L234.747 880.174C233.222 879.311 231.263 879.517 229.965 880.811Z" fill="url(#paint16_linear_39_873)"/>
<path d="M157.605 1054.32C155.915 1054.79 154.678 1056.31 154.678 1058.14C154.678 1060.33 156.471 1062.12 158.677 1062.12C160.883 1062.12 162.677 1060.33 162.677 1058.14C162.677 1056.31 161.419 1054.77 159.749 1054.32L159.749 886.521L194.28 920.926C193.414 922.446 193.62 924.398 194.919 925.692C196.486 927.253 199.021 927.253 200.567 925.692C202.134 924.131 202.134 921.604 200.567 920.064C199.269 918.77 197.31 918.564 195.785 919.427L157.626 881.407L157.626 1054.32L157.605 1054.32Z" fill="url(#paint17_linear_39_873)"/>
<path d="M162.862 800.539L222.131 859.593L254.765 827.077L254.765 651.764L184.962 582.215C185.827 580.695 185.621 578.743 184.323 577.449C182.756 575.888 180.22 575.888 178.674 577.449C177.107 579.01 177.107 581.537 178.674 583.077C179.973 584.371 181.931 584.577 183.457 583.714L252.641 652.627L252.641 826.194L222.131 856.594L160.739 795.424L160.739 861.338L191.146 891.636C190.28 893.156 190.486 895.107 191.785 896.401C193.352 897.962 195.888 897.962 197.434 896.401C199.001 894.84 199.001 892.313 197.434 890.773C196.135 889.479 194.177 889.273 192.651 890.136L162.862 860.455L162.862 800.539Z" fill="url(#paint18_linear_39_873)"/>
<path d="M186.013 944.096C187.703 943.623 188.94 942.103 188.94 940.275C188.94 938.077 187.147 936.29 184.941 936.29C182.735 936.29 180.942 938.077 180.942 940.275C180.942 942.103 182.179 943.623 183.869 944.096L183.869 1055.47L102.583 1136.46L102.583 1234.99C100.893 1235.46 99.6558 1236.98 99.6558 1238.81C99.6558 1241.01 101.449 1242.79 103.655 1242.79C105.861 1242.79 107.655 1241.01 107.655 1238.81C107.655 1236.98 106.397 1235.44 104.727 1234.99L104.727 1137.34L186.013 1056.35L186.013 944.096Z" fill="url(#paint19_linear_39_873)"/>
<path d="M263.918 1256.17C262.228 1256.64 260.991 1258.16 260.991 1259.99C260.991 1262.19 262.784 1263.97 264.99 1263.97C267.196 1263.97 268.989 1262.19 268.989 1259.99C268.989 1258.16 267.732 1256.62 266.062 1256.17L266.062 1112.77L219.389 1066.27C220.255 1064.75 220.049 1062.8 218.75 1061.51C217.183 1059.94 214.648 1059.94 213.101 1061.51C211.535 1063.07 211.535 1065.59 213.101 1067.13C214.4 1068.43 216.359 1068.63 217.884 1067.77L263.918 1113.64L263.918 1256.17Z" fill="url(#paint20_linear_39_873)"/>
<path d="M106.974 759.17L133.63 785.729C132.764 787.249 132.97 789.201 134.269 790.495C135.836 792.056 138.371 792.056 139.917 790.495C141.484 788.934 141.484 786.407 139.917 784.867C138.619 783.572 136.66 783.367 135.135 784.23L109.098 758.287L109.098 454.885L82.1329 428.018C82.9987 426.498 82.7925 424.546 81.4938 423.252C79.927 421.691 77.3914 421.691 75.8452 423.252C74.2785 424.813 74.2785 427.34 75.8452 428.88C77.144 430.174 79.1024 430.38 80.628 429.517L106.974 455.768L106.974 759.17Z" fill="url(#paint21_linear_39_873)"/>
<path d="M156.739 475.528C156.739 473.33 154.946 471.543 152.74 471.543C150.534 471.543 148.741 473.33 148.741 475.528C148.741 477.356 149.998 478.896 151.668 479.348L151.668 613.703L188.239 650.142L188.239 801.011L143.711 756.644C144.576 755.124 144.37 753.173 143.071 751.879C141.505 750.317 138.969 750.317 137.423 751.879C135.856 753.44 135.856 755.966 137.423 757.507C138.722 758.801 140.68 759.006 142.206 758.143L190.383 806.146L190.383 649.279L153.812 612.84L153.812 479.369C155.482 478.896 156.739 477.356 156.739 475.528Z" fill="url(#paint22_linear_39_873)"/>
<path d="M227.635 811.24L217.224 821.613C215.699 820.751 213.74 820.956 212.442 822.25C210.875 823.811 210.875 826.337 212.442 827.878C214.008 829.419 216.544 829.439 218.09 827.878C219.389 826.584 219.595 824.633 218.729 823.113L229.758 812.124L229.758 655.503L187.477 613.374C188.342 611.854 188.136 609.903 186.838 608.609C185.271 607.048 182.735 607.048 181.189 608.609C179.622 610.17 179.622 612.697 181.189 614.237C182.488 615.531 184.446 615.736 185.972 614.874L227.635 656.386L227.635 811.24Z" fill="url(#paint23_linear_39_873)"/>
<path d="M46.0974 342.61L46.0974 284.974C47.7878 284.502 49.0248 282.982 49.0248 281.154C49.0248 278.956 47.2312 277.169 45.0254 277.169C42.8196 277.169 41.026 278.956 41.026 281.154C41.026 282.982 42.2836 284.502 43.9534 284.974L43.9534 343.473L132.887 432.085L132.888 633.627L163.213 663.842L163.213 748.695L134.928 720.513C135.794 718.993 135.588 717.042 134.289 715.748C132.723 714.187 130.187 714.187 128.641 715.748C127.074 717.309 127.074 719.835 128.641 721.376C129.94 722.67 131.898 722.875 133.424 722.013L165.336 753.809L165.336 662.98L135.011 632.765L135.011 431.222L46.0974 342.61Z" fill="url(#paint24_linear_39_873)"/>
<path d="M299.747 200.163C299.747 201.991 300.984 203.531 302.674 203.983L302.674 323.693L328.938 349.861L328.938 390.1L311.436 407.539L311.436 650.511L293.934 667.95L293.934 702.951C292.243 703.424 291.006 704.944 291.006 706.772C291.006 708.97 292.8 710.757 295.006 710.757C297.211 710.757 299.005 708.97 299.005 706.772C299.005 704.944 297.747 703.403 296.078 702.951L296.078 668.834L313.58 651.395L313.58 408.443L331.082 391.004L331.082 349.019L304.819 322.851L304.818 204.024C306.509 203.552 307.746 202.032 307.746 200.204C307.746 198.006 305.952 196.219 303.746 196.219C301.541 196.219 299.747 197.965 299.747 200.163Z" fill="url(#paint25_linear_39_873)"/>
<path d="M164.305 1118.24C165.872 1116.68 165.872 1114.15 164.305 1112.61C162.738 1111.05 160.203 1111.05 158.657 1112.61C157.358 1113.9 157.152 1115.86 158.018 1117.38L124.477 1150.77L124.477 1236.86C122.786 1237.33 121.549 1238.85 121.549 1240.68C121.549 1242.88 123.343 1244.66 125.549 1244.66C127.754 1244.66 129.548 1242.88 129.548 1240.68C129.548 1238.85 128.29 1237.31 126.621 1236.86L126.621 1151.66L159.522 1118.87C161.048 1119.72 163.006 1119.53 164.305 1118.24Z" fill="url(#paint26_linear_39_873)"/>
<path d="M238.953 1262.47C238.953 1260.64 237.695 1259.1 236.026 1258.65L236.026 1135.2L203.515 1102.81L203.515 1025.09C205.206 1024.61 206.443 1023.09 206.443 1021.27C206.443 1019.07 204.649 1017.28 202.443 1017.28C200.237 1017.28 198.444 1019.07 198.444 1021.27C198.444 1023.09 199.681 1024.61 201.371 1025.09L201.371 1103.7L233.882 1136.09L233.882 1258.65C232.191 1259.12 230.954 1260.64 230.954 1262.47C230.954 1264.67 232.748 1266.46 234.954 1266.46C237.18 1266.48 238.953 1264.69 238.953 1262.47Z" fill="url(#paint27_linear_39_873)"/>
<path d="M183.436 1261.24C183.436 1263.44 185.23 1265.22 187.435 1265.22C189.641 1265.22 191.435 1263.44 191.435 1261.24C191.435 1259.41 190.177 1257.87 188.507 1257.42L188.507 1168.85L166.861 1147.28C167.727 1145.76 167.521 1143.81 166.222 1142.52C164.656 1140.96 162.12 1140.96 160.574 1142.52C159.007 1144.08 159.007 1146.6 160.574 1148.14C161.873 1149.44 163.831 1149.64 165.357 1148.78L186.384 1169.73L186.384 1257.42C184.694 1257.87 183.436 1259.41 183.436 1261.24Z" fill="url(#paint28_linear_39_873)"/>
<path d="M216.462 1246.29C216.462 1244.46 215.204 1242.92 213.534 1242.47L213.534 1157.63L181.024 1125.24L181.024 1086.15C182.715 1085.68 183.951 1084.16 183.951 1082.33C183.951 1080.14 182.158 1078.35 179.952 1078.35C177.746 1078.35 175.953 1080.14 175.953 1082.33C175.953 1084.16 177.19 1085.7 178.88 1086.15L178.88 1126.1L211.39 1158.5L211.39 1242.47C209.7 1242.94 208.463 1244.46 208.463 1246.29C208.463 1248.48 210.257 1250.27 212.462 1250.27C214.668 1250.27 216.462 1248.48 216.462 1246.29Z" fill="url(#paint29_linear_39_873)"/>
<path d="M254.167 415.817C255.857 415.344 257.094 413.824 257.094 411.996C257.094 409.798 255.301 408.011 253.095 408.011C250.889 408.011 249.096 409.798 249.096 411.996C249.096 413.824 250.333 415.365 252.023 415.817L252.023 572.294L297.294 617.4L297.294 535.444C298.984 534.972 300.221 533.452 300.221 531.623C300.221 529.426 298.428 527.639 296.222 527.639C294.016 527.639 292.223 529.426 292.223 531.623C292.223 533.452 293.46 534.992 295.15 535.444L295.15 612.286L254.146 571.41L254.146 415.817L254.167 415.817Z" fill="url(#paint30_linear_39_873)"/>
<path d="M262.908 343.021L262.908 215.671L213.204 166.148L213.204 86.8617C214.895 86.3893 216.132 84.8693 216.132 83.0412C216.132 80.8434 214.338 79.0563 212.132 79.0563C209.927 79.0563 208.133 80.8434 208.133 83.0412C208.133 84.8693 209.37 86.3893 211.06 86.8617L211.06 167.01L260.764 216.533L260.764 342.118L220.131 382.603L220.131 561.654L253.672 595.073C252.806 596.593 253.012 598.544 254.311 599.838C255.878 601.399 258.414 601.399 259.96 599.838C261.527 598.277 261.527 595.751 259.96 594.21C258.661 592.916 256.703 592.711 255.177 593.573L222.275 560.791L222.275 383.486L262.908 343.021Z" fill="url(#paint31_linear_39_873)"/>
<path d="M107.902 203.531L68.1969 243.092L68.1969 336.797L128.62 396.981C127.754 398.501 127.96 400.452 129.259 401.746C130.826 403.307 133.362 403.307 134.908 401.746C136.475 400.185 136.475 397.659 134.908 396.118C133.609 394.824 131.651 394.619 130.125 395.482L70.3203 335.894L70.3203 243.955L110.025 204.394L110.025 46.9925C111.716 46.5201 112.953 45.0001 112.953 43.172C112.953 40.9742 111.159 39.1872 108.953 39.1872C106.747 39.1872 104.954 40.9742 104.954 43.172C104.954 45.0001 106.191 46.5406 107.881 46.9925L107.881 203.531L107.902 203.531Z" fill="url(#paint32_linear_39_873)"/>
<path d="M254.723 35.6953C254.723 37.5233 255.96 39.064 257.651 39.5158L257.651 146.778L290.161 179.17L290.161 376.399L276.411 390.1L276.411 530.987C274.72 531.459 273.483 532.979 273.483 534.807C273.483 537.005 275.277 538.792 277.483 538.792C279.689 538.792 281.482 537.005 281.482 534.807C281.482 532.979 280.225 531.438 278.555 530.987L278.555 390.963L292.305 377.262L292.305 178.266L259.795 145.874L259.795 39.4953C261.485 39.0229 262.722 37.5028 262.722 35.6747C262.722 33.4768 260.929 31.6899 258.723 31.6899C256.517 31.6899 254.723 33.4974 254.723 35.6953Z" fill="url(#paint33_linear_39_873)"/>
<path d="M136.165 115.187C133.959 115.187 132.166 116.974 132.166 119.172C132.166 121 133.423 122.54 135.093 122.992L135.093 228.118L107.593 255.54L107.593 335.38C105.902 335.853 104.665 337.373 104.665 339.201C104.665 341.399 106.459 343.186 108.665 343.186C110.87 343.186 112.664 341.399 112.664 339.201C112.664 337.373 111.406 335.832 109.737 335.38L109.737 265.851C110.046 266.036 110.376 266.18 110.726 266.282L110.726 334.292L175.128 398.46L175.128 539.716C173.438 540.189 172.201 541.709 172.201 543.537C172.201 545.735 173.994 547.522 176.2 547.522C178.406 547.522 180.199 545.735 180.199 543.537C180.199 541.709 178.942 540.168 177.272 539.716L177.272 397.577L112.87 333.408L112.87 266.282C114.561 265.81 115.797 264.29 115.797 262.462C115.797 260.264 114.004 258.477 111.798 258.477C111.035 258.477 110.334 258.703 109.737 259.073L109.737 256.423L137.237 229.022L137.237 123.013C138.928 122.54 140.165 121.02 140.165 119.192C140.165 116.974 138.371 115.187 136.165 115.187Z" fill="url(#paint34_linear_39_873)"/>
<path d="M172.819 4.55606C172.819 6.38415 174.077 7.90411 175.747 8.37655L175.747 177.301L235.139 236.478L235.139 334.025L194.939 374.078L147.462 326.774C148.328 325.254 148.122 323.302 146.823 322.008C145.257 320.447 142.721 320.447 141.175 322.008C139.608 323.569 139.608 326.096 141.175 327.636C142.474 328.93 144.432 329.136 145.958 328.273L194.939 377.077L237.262 334.908L237.262 235.595L177.87 176.418L177.87 8.35599C179.56 7.88354 180.797 6.36358 180.797 4.53549C180.797 2.33768 179.004 0.550627 176.798 0.550627C174.592 0.571196 172.819 2.33768 172.819 4.55606Z" fill="url(#paint35_linear_39_873)"/>
<path d="M162.677 124.779C162.677 122.581 160.883 120.794 158.677 120.794C156.471 120.794 154.678 122.581 154.678 124.779C154.678 126.607 155.935 128.148 157.605 128.6L157.605 287.562L186.755 316.606C185.889 318.126 186.095 320.078 187.394 321.372C188.961 322.933 191.497 322.933 193.043 321.372C194.61 319.811 194.61 317.284 193.043 315.744C191.744 314.45 189.786 314.244 188.26 315.107L159.729 286.679L159.729 128.6C161.44 128.148 162.677 126.607 162.677 124.779Z" fill="url(#paint36_linear_39_873)"/>
<path d="M212.256 251.801L193.723 233.335C194.589 231.815 194.383 229.864 193.084 228.57C191.517 227.009 188.982 227.009 187.435 228.57C185.869 230.131 185.869 232.658 187.435 234.198C188.734 235.492 190.693 235.698 192.218 234.835L210.112 252.664L210.112 305.74L183.704 279.428C184.57 277.908 184.364 275.957 183.065 274.663C181.498 273.102 178.963 273.102 177.416 274.663C175.85 276.224 175.85 278.75 177.416 280.291C178.715 281.585 180.674 281.79 182.199 280.928L212.236 310.855L212.236 251.801L212.256 251.801Z" fill="url(#paint37_linear_39_873)"/>
</g>
<defs>
<linearGradient id="paint0_linear_39_873" x1="-16.8138" y1="1149.76" x2="-16.8138" y2="859.03" gradientUnits="userSpaceOnUse">
<stop/>
<stop offset="0.1072" stop-color="#141414"/>
<stop offset="0.326" stop-color="#464646"/>
<stop offset="0.6375" stop-color="#989898"/>
<stop offset="1" stop-color="white"/>
</linearGradient>
<linearGradient id="paint1_linear_39_873" x1="8.61339" y1="1025.16" x2="8.61337" y2="571.624" gradientUnits="userSpaceOnUse">
<stop/>
<stop offset="0.1072" stop-color="#141414"/>
<stop offset="0.326" stop-color="#464646"/>
<stop offset="0.6375" stop-color="#989898"/>
<stop offset="1" stop-color="white"/>
</linearGradient>
<linearGradient id="paint2_linear_39_873" x1="-12.6458" y1="765.996" x2="-12.6459" y2="347.349" gradientUnits="userSpaceOnUse">
<stop/>
<stop offset="0.1072" stop-color="#141414"/>
<stop offset="0.326" stop-color="#464646"/>
<stop offset="0.6375" stop-color="#989898"/>
<stop offset="1" stop-color="white"/>
</linearGradient>
<linearGradient id="paint3_linear_39_873" x1="19.2515" y1="667.979" x2="19.2515" y2="99.8189" gradientUnits="userSpaceOnUse">
<stop/>
<stop offset="0.1072" stop-color="#141414"/>
<stop offset="0.326" stop-color="#464646"/>
<stop offset="0.6375" stop-color="#989898"/>
<stop offset="1" stop-color="white"/>
</linearGradient>
<linearGradient id="paint4_linear_39_873" x1="338.166" y1="1267.71" x2="338.166" y2="1082.97" gradientUnits="userSpaceOnUse">
<stop/>
<stop offset="0.1072" stop-color="#141414"/>
<stop offset="0.326" stop-color="#464646"/>
<stop offset="0.6375" stop-color="#989898"/>
<stop offset="1" stop-color="white"/>
</linearGradient>
<linearGradient id="paint5_linear_39_873" x1="331.408" y1="1106.07" x2="331.408" y2="862.355" gradientUnits="userSpaceOnUse">
<stop/>
<stop offset="0.1072" stop-color="#141414"/>
<stop offset="0.326" stop-color="#464646"/>
<stop offset="0.6375" stop-color="#989898"/>
<stop offset="1" stop-color="white"/>
</linearGradient>
<linearGradient id="paint6_linear_39_873" x1="353.345" y1="893.919" x2="353.345" y2="428.753" gradientUnits="userSpaceOnUse">
<stop/>
<stop offset="0.1072" stop-color="#141414"/>
<stop offset="0.326" stop-color="#464646"/>
<stop offset="0.6375" stop-color="#989898"/>
<stop offset="1" stop-color="white"/>
</linearGradient>
<linearGradient id="paint7_linear_39_873" x1="361.256" y1="475.27" x2="361.256" y2="131.382" gradientUnits="userSpaceOnUse">
<stop/>
<stop offset="0.1072" stop-color="#141414"/>
<stop offset="0.326" stop-color="#464646"/>
<stop offset="0.6375" stop-color="#989898"/>
<stop offset="1" stop-color="white"/>
</linearGradient>
<linearGradient id="paint8_linear_39_873" x1="234.285" y1="1264.39" x2="234.285" y2="850.387" gradientUnits="userSpaceOnUse">
<stop/>
<stop offset="0.1072" stop-color="#141414"/>
<stop offset="0.326" stop-color="#464646"/>
<stop offset="0.6375" stop-color="#989898"/>
<stop offset="1" stop-color="white"/>
</linearGradient>
<linearGradient id="paint9_linear_39_873" x1="307.288" y1="1087.8" x2="307.288" y2="134.706" gradientUnits="userSpaceOnUse">
<stop/>
<stop offset="0.1072" stop-color="#141414"/>
<stop offset="0.326" stop-color="#464646"/>
<stop offset="0.6375" stop-color="#989898"/>
<stop offset="1" stop-color="white"/>
</linearGradient>
<linearGradient id="paint10_linear_39_873" x1="303.994" y1="1064.54" x2="303.994" y2="883.199" gradientUnits="userSpaceOnUse">
<stop/>
<stop offset="0.1072" stop-color="#141414"/>
<stop offset="0.326" stop-color="#464646"/>
<stop offset="0.6375" stop-color="#989898"/>
<stop offset="1" stop-color="white"/>
</linearGradient>
<linearGradient id="paint11_linear_39_873" x1="38.6242" y1="1267.3" x2="38.6242" y2="440.462" gradientUnits="userSpaceOnUse">
<stop/>
<stop offset="0.1072" stop-color="#141414"/>
<stop offset="0.326" stop-color="#464646"/>
<stop offset="0.6375" stop-color="#989898"/>
<stop offset="1" stop-color="white"/>
</linearGradient>
<linearGradient id="paint12_linear_39_873" x1="74.5209" y1="1078.87" x2="74.5209" y2="791.753" gradientUnits="userSpaceOnUse">
<stop/>
<stop offset="0.1072" stop-color="#141414"/>
<stop offset="0.326" stop-color="#464646"/>
<stop offset="0.6375" stop-color="#989898"/>
<stop offset="1" stop-color="white"/>
</linearGradient>
<linearGradient id="paint13_linear_39_873" x1="52.9565" y1="1216.63" x2="52.9565" y2="845.408" gradientUnits="userSpaceOnUse">
<stop/>
<stop offset="0.1072" stop-color="#141414"/>
<stop offset="0.326" stop-color="#464646"/>
<stop offset="0.6375" stop-color="#989898"/>
<stop offset="1" stop-color="white"/>
</linearGradient>
<linearGradient id="paint14_linear_39_873" x1="110.793" y1="1124.35" x2="110.793" y2="772.209" gradientUnits="userSpaceOnUse">
<stop/>
<stop offset="0.1072" stop-color="#141414"/>
<stop offset="0.326" stop-color="#464646"/>
<stop offset="0.6375" stop-color="#989898"/>
<stop offset="1" stop-color="white"/>
</linearGradient>
<linearGradient id="paint15_linear_39_873" x1="67.6426" y1="1255.26" x2="67.6426" y2="314.547" gradientUnits="userSpaceOnUse">
<stop/>
<stop offset="0.1072" stop-color="#141414"/>
<stop offset="0.326" stop-color="#464646"/>
<stop offset="0.6375" stop-color="#989898"/>
<stop offset="1" stop-color="white"/>
</linearGradient>
<linearGradient id="paint16_linear_39_873" x1="238.494" y1="887.615" x2="238.494" y2="415.469" gradientUnits="userSpaceOnUse">
<stop/>
<stop offset="0.1072" stop-color="#141414"/>
<stop offset="0.326" stop-color="#464646"/>
<stop offset="0.6375" stop-color="#989898"/>
<stop offset="1" stop-color="white"/>
</linearGradient>
<linearGradient id="paint17_linear_39_873" x1="178.21" y1="1062.13" x2="178.21" y2="881.395" gradientUnits="userSpaceOnUse">
<stop/>
<stop offset="0.1072" stop-color="#141414"/>
<stop offset="0.326" stop-color="#464646"/>
<stop offset="0.6375" stop-color="#989898"/>
<stop offset="1" stop-color="white"/>
</linearGradient>
<linearGradient id="paint18_linear_39_873" x1="207.761" y1="897.584" x2="207.761" y2="576.28" gradientUnits="userSpaceOnUse">
<stop/>
<stop offset="0.1072" stop-color="#141414"/>
<stop offset="0.326" stop-color="#464646"/>
<stop offset="0.6375" stop-color="#989898"/>
<stop offset="1" stop-color="white"/>
</linearGradient>
<linearGradient id="paint19_linear_39_873" x1="144.298" y1="1242.8" x2="144.298" y2="936.286" gradientUnits="userSpaceOnUse">
<stop/>
<stop offset="0.1072" stop-color="#141414"/>
<stop offset="0.326" stop-color="#464646"/>
<stop offset="0.6375" stop-color="#989898"/>
<stop offset="1" stop-color="white"/>
</linearGradient>
<linearGradient id="paint20_linear_39_873" x1="240.439" y1="1263.98" x2="240.439" y2="1060.34" gradientUnits="userSpaceOnUse">
<stop/>
<stop offset="0.1072" stop-color="#141414"/>
<stop offset="0.326" stop-color="#464646"/>
<stop offset="0.6375" stop-color="#989898"/>
<stop offset="1" stop-color="white"/>
</linearGradient>
<linearGradient id="paint21_linear_39_873" x1="107.877" y1="791.678" x2="107.877" y2="422.09" gradientUnits="userSpaceOnUse">
<stop/>
<stop offset="0.1072" stop-color="#141414"/>
<stop offset="0.326" stop-color="#464646"/>
<stop offset="0.6375" stop-color="#989898"/>
<stop offset="1" stop-color="white"/>
</linearGradient>
<linearGradient id="paint22_linear_39_873" x1="163.314" y1="806.149" x2="163.314" y2="471.541" gradientUnits="userSpaceOnUse">
<stop/>
<stop offset="0.1072" stop-color="#141414"/>
<stop offset="0.326" stop-color="#464646"/>
<stop offset="0.6375" stop-color="#989898"/>
<stop offset="1" stop-color="white"/>
</linearGradient>
<linearGradient id="paint23_linear_39_873" x1="204.894" y1="829.054" x2="204.894" y2="607.429" gradientUnits="userSpaceOnUse">
<stop/>
<stop offset="0.1072" stop-color="#141414"/>
<stop offset="0.326" stop-color="#464646"/>
<stop offset="0.6375" stop-color="#989898"/>
<stop offset="1" stop-color="white"/>
</linearGradient>
<linearGradient id="paint24_linear_39_873" x1="103.204" y1="753.819" x2="103.204" y2="277.169" gradientUnits="userSpaceOnUse">
<stop/>
<stop offset="0.1072" stop-color="#141414"/>
<stop offset="0.326" stop-color="#464646"/>
<stop offset="0.6375" stop-color="#989898"/>
<stop offset="1" stop-color="white"/>
</linearGradient>
<linearGradient id="paint25_linear_39_873" x1="311.023" y1="710.767" x2="311.023" y2="196.18" gradientUnits="userSpaceOnUse">
<stop/>
<stop offset="0.1072" stop-color="#141414"/>
<stop offset="0.326" stop-color="#464646"/>
<stop offset="0.6375" stop-color="#989898"/>
<stop offset="1" stop-color="white"/>
</linearGradient>
<linearGradient id="paint26_linear_39_873" x1="143.509" y1="1244.67" x2="143.509" y2="1111.42" gradientUnits="userSpaceOnUse">
<stop/>
<stop offset="0.1072" stop-color="#141414"/>
<stop offset="0.326" stop-color="#464646"/>
<stop offset="0.6375" stop-color="#989898"/>
<stop offset="1" stop-color="white"/>
</linearGradient>
<linearGradient id="paint27_linear_39_873" x1="218.704" y1="1266.47" x2="218.704" y2="1017.28" gradientUnits="userSpaceOnUse">
<stop/>
<stop offset="0.1072" stop-color="#141414"/>
<stop offset="0.326" stop-color="#464646"/>
<stop offset="0.6375" stop-color="#989898"/>
<stop offset="1" stop-color="white"/>
</linearGradient>
<linearGradient id="paint28_linear_39_873" x1="175.412" y1="1265.22" x2="175.412" y2="1141.33" gradientUnits="userSpaceOnUse">
<stop/>
<stop offset="0.1072" stop-color="#141414"/>
<stop offset="0.326" stop-color="#464646"/>
<stop offset="0.6375" stop-color="#989898"/>
<stop offset="1" stop-color="white"/>
</linearGradient>
<linearGradient id="paint29_linear_39_873" x1="196.194" y1="1250.27" x2="196.194" y2="1078.33" gradientUnits="userSpaceOnUse">
<stop/>
<stop offset="0.1072" stop-color="#141414"/>
<stop offset="0.326" stop-color="#464646"/>
<stop offset="0.6375" stop-color="#989898"/>
<stop offset="1" stop-color="white"/>
</linearGradient>
<linearGradient id="paint30_linear_39_873" x1="274.664" y1="617.384" x2="274.664" y2="407.995" gradientUnits="userSpaceOnUse">
<stop/>
<stop offset="0.1072" stop-color="#141414"/>
<stop offset="0.326" stop-color="#464646"/>
<stop offset="0.6375" stop-color="#989898"/>
<stop offset="1" stop-color="white"/>
</linearGradient>
<linearGradient id="paint31_linear_39_873" x1="235.524" y1="601.041" x2="235.524" y2="79.0568" gradientUnits="userSpaceOnUse">
<stop/>
<stop offset="0.1072" stop-color="#141414"/>
<stop offset="0.326" stop-color="#464646"/>
<stop offset="0.6375" stop-color="#989898"/>
<stop offset="1" stop-color="white"/>
</linearGradient>
<linearGradient id="paint32_linear_39_873" x1="102.148" y1="402.931" x2="102.148" y2="39.1851" gradientUnits="userSpaceOnUse">
<stop/>
<stop offset="0.1072" stop-color="#141414"/>
<stop offset="0.326" stop-color="#464646"/>
<stop offset="0.6375" stop-color="#989898"/>
<stop offset="1" stop-color="white"/>
</linearGradient>
<linearGradient id="paint33_linear_39_873" x1="273.509" y1="538.82" x2="273.508" y2="31.7115" gradientUnits="userSpaceOnUse">
<stop/>
<stop offset="0.1072" stop-color="#141414"/>
<stop offset="0.326" stop-color="#464646"/>
<stop offset="0.6375" stop-color="#989898"/>
<stop offset="1" stop-color="white"/>
</linearGradient>
<linearGradient id="paint34_linear_39_873" x1="142.423" y1="547.54" x2="142.423" y2="115.193" gradientUnits="userSpaceOnUse">
<stop/>
<stop offset="0.1072" stop-color="#141414"/>
<stop offset="0.326" stop-color="#464646"/>
<stop offset="0.6375" stop-color="#989898"/>
<stop offset="1" stop-color="white"/>
</linearGradient>
<linearGradient id="paint35_linear_39_873" x1="188.638" y1="377.099" x2="188.637" y2="0.56174" gradientUnits="userSpaceOnUse">
<stop/>
<stop offset="0.1072" stop-color="#141414"/>
<stop offset="0.326" stop-color="#464646"/>
<stop offset="0.6375" stop-color="#989898"/>
<stop offset="1" stop-color="white"/>
</linearGradient>
<linearGradient id="paint36_linear_39_873" x1="174.459" y1="322.569" x2="174.459" y2="120.797" gradientUnits="userSpaceOnUse">
<stop/>
<stop offset="0.1072" stop-color="#141414"/>
<stop offset="0.326" stop-color="#464646"/>
<stop offset="0.6375" stop-color="#989898"/>
<stop offset="1" stop-color="white"/>
</linearGradient>
<linearGradient id="paint37_linear_39_873" x1="194.265" y1="310.877" x2="194.265" y2="227.407" gradientUnits="userSpaceOnUse">
<stop/>
<stop offset="0.1072" stop-color="#141414"/>
<stop offset="0.326" stop-color="#464646"/>
<stop offset="0.6375" stop-color="#989898"/>
<stop offset="1" stop-color="white"/>
</linearGradient>
</defs>
</svg>
